<svg height="512pt" viewBox="-61 0 512 512" width="512pt" xmlns="http://www.w3.org/2000/svg"><path d="m373.84375 503.871094h-349.714844c-8.839844 0-16-7.160156-16-16v-33.015625c0-8.835938 7.160156-16 16-16h349.710938v65.015625zm0 0" fill="#f9eac7"/><path d="m373.84375 503.871094h-349.714844c-8.839844 0-16-7.160156-16-16v-8.378906h365.710938v24.378906zm0 0" fill="#fff5d7"/><path d="m8.128906 455.109375v8.128906h365.710938v-24.382812h-349.457032c-8.976562 0-16.253906 7.277343-16.253906 16.253906zm0 0" fill="#f4dbb3"/><path d="m16.253906 0h357.585938c8.976562 0 16.253906 7.277344 16.253906 16.253906v422.601563h-365.710938c-13.46875 0-24.382812 10.917969-24.382812 24.382812v16.253907-463.238282c0-8.976562 7.277344-16.253906 16.253906-16.253906zm0 0" fill="#ffc269"/><path d="m146.285156 284.445312c0 8.976563 7.277344 16.253907 16.253906 16.253907h97.523438c8.976562 0 16.253906-7.277344 16.253906-16.253907v-40.636718c22.445313 0 40.636719-18.191406 40.636719-40.632813 0-22.441406-18.191406-40.636719-40.636719-40.636719-3.523437 0-6.882812.589844-10.144531 1.433594-6.53125-24.21875-28.585937-42.066406-54.871094-42.066406-26.28125 0-48.339843 17.847656-54.867187 42.066406-3.261719-.84375-6.621094-1.433594-10.148438-1.433594-22.441406 0-40.632812 18.195313-40.632812 40.636719 0 22.441407 18.191406 40.632813 40.632812 40.632813zm0 0" fill="#fff"/><path d="m276.316406 349.460938h-130.03125c-4.492187 0-8.125-3.636719-8.125-8.128907 0-4.492187 3.632813-8.125 8.125-8.125h130.03125c4.492188 0 8.128906 3.632813 8.128906 8.125 0 4.492188-3.636718 8.128907-8.128906 8.128907zm0 0" fill="#f9eac7"/><path d="m251.9375 390.09375h-81.269531c-4.492188 0-8.128907-3.632812-8.128907-8.125s3.636719-8.128906 8.128907-8.128906h81.269531c4.492188 0 8.125 3.636718 8.125 8.128906s-3.632812 8.125-8.125 8.125zm0 0" fill="#f9eac7"/><path d="m276.570312 81.269531h-130.539062c-8.835938 0-16-7.164062-16-16v-.507812c0-8.835938 7.164062-16 16-16h130.539062c8.839844 0 16 7.164062 16 16v.507812c0 8.835938-7.164062 16-16 16zm0 0" fill="#fff"/><path d="m97.523438 73.144531h-8.125c-4.492188 0-8.128907-3.636719-8.128907-8.128906s3.636719-8.125 8.128907-8.125h8.125c4.492187 0 8.128906 3.632813 8.128906 8.125s-3.636719 8.128906-8.128906 8.128906zm0 0" fill="#ff8b5a"/><path d="m333.207031 73.144531h-8.128906c-4.488281 0-8.125-3.636719-8.125-8.128906s3.636719-8.125 8.125-8.125h8.128906c4.492188 0 8.128907 3.632813 8.128907 8.125s-3.636719 8.128906-8.128907 8.128906zm0 0" fill="#ff8b5a"/><path d="m32.507812 349.460938v-349.460938h-16.253906c-8.976562 0-16.253906 7.277344-16.253906 16.253906v446.984375c0-13.464843 10.914062-24.382812 24.382812-24.382812h365.710938v-24.378907h-292.570312c-35.90625 0-65.015626-29.109374-65.015626-65.015624zm0 0" fill="#ffa95f"/><path d="m373.84375 512h-349.460938c-13.445312 0-24.382812-10.9375-24.382812-24.382812v-32.507813c0-13.441406 10.9375-24.378906 24.382812-24.378906h357.585938c4.492188 0 8.125 3.632812 8.125 8.125 0 4.492187-3.632812 8.128906-8.125 8.128906h-357.585938c-4.484374 0-8.128906 3.644531-8.128906 8.125v32.507813c0 4.484374 3.644532 8.128906 8.128906 8.128906h349.457032c4.492187 0 8.128906 3.636718 8.128906 8.125 0 4.492187-3.632812 8.128906-8.125 8.128906zm0 0" fill="#ff8b5a"/><g fill="#f9eac7"><path d="m246.953125 260.0625 12.691406-38.0625c1.417969-4.261719-.882812-8.863281-5.136719-10.277344-4.292968-1.4375-8.855468.878906-10.277343 5.132813l-14.402344 43.207031h-10.398437v-48.761719c0-4.492187-3.636719-8.125-8.128907-8.125-4.492187 0-8.125 3.632813-8.125 8.125v48.761719h-10.398437l-14.402344-43.207031c-1.421875-4.253907-5.976562-6.570313-10.277344-5.132813-4.253906 1.414063-6.558594 6.015625-5.136718 10.277344l12.6875 38.0625h-29.363282v24.382812c0 8.976563 7.277344 16.253907 16.253906 16.253907h8.128907v-8.128907c0-8.976562 7.277343-16.253906 16.253906-16.253906h89.394531v-16.253906zm0 0"/><path d="m146.285156 218.242188c0-6.625-2.710937-12.898438-7.449218-17.527344-5.855469-5.71875-13.476563-15.648438-16.328126-30.359375-10.171874 7.382812-16.855468 19.289062-16.855468 32.820312 0 22.441407 18.191406 40.632813 40.632812 40.632813zm0 0"/><path d="m146.285156 81.269531h130.03125c8.980469 0 16.253906-7.277343 16.253906-16.253906h-162.539062c0 8.976563 7.277344 16.253906 16.253906 16.253906zm0 0"/></g></svg>