<svg width="44" height="44" viewBox="0 0 44 44" fill="none" xmlns="http://www.w3.org/2000/svg">
<path fill-rule="evenodd" clip-rule="evenodd" d="M9.66987 18.5646C9.16669 19.6587 9.16669 20.9033 9.16669 23.3925V31.1665C9.16669 34.6235 9.16669 36.352 10.2406 37.4259C11.3059 38.4912 13.0152 38.4998 16.4167 38.4999V29.3333C16.4167 27.7685 17.6852 26.5 19.25 26.5H24.75C26.3148 26.5 27.5834 27.7685 27.5834 29.3333V38.4999C30.9848 38.4998 32.6941 38.4912 33.7594 37.4259C34.8334 36.352 34.8334 34.6235 34.8334 31.1665V23.3925C34.8334 20.9033 34.8334 19.6587 34.3302 18.5646C33.827 17.4706 32.882 16.6606 30.9921 15.0407L29.1587 13.4693C25.7426 10.5412 24.0346 9.07715 22 9.07715C19.9654 9.07715 18.2574 10.5412 14.8413 13.4693L13.008 15.0407C11.118 16.6606 10.173 17.4706 9.66987 18.5646ZM25.5834 38.4999V29.3333C25.5834 28.8731 25.2103 28.5 24.75 28.5H19.25C18.7898 28.5 18.4167 28.8731 18.4167 29.3333V38.4999H25.5834Z" fill="white"/>
</svg>
